<svg xmlns="http://www.w3.org/2000/svg" viewBox="0 0 286.41 208.8"><defs><style>.cls-1,.cls-4{fill:#fff;}.cls-2{fill:#1d1d1b;}.cls-3{fill:#dd271c;}.cls-4{fill-rule:evenodd;}</style></defs><title>logo</title><g id="Capa_2" data-name="Capa 2"><g id="Layer_1" data-name="Layer 1"><path class="cls-1" d="M282.76,52.1c-4.09-8.66-11-15.93-19.75-22.21C249.88,20.5,232.43,13.18,212,8a286.34,286.34,0,0,0-68.74-8H143C105,0,70.62,6.62,44.86,17.8,32,23.42,21.2,30.19,13.22,38.39a50.67,50.67,0,0,0-9.6,13.55A37,37,0,0,0,0,67.71V68A37.1,37.1,0,0,0,3.64,83.64c4.1,8.65,11,15.92,19.76,22.2,13.14,9.39,30.59,16.71,51,21.85a286.29,286.29,0,0,0,68.81,8h.21c38,0,72.35-6.62,98.1-17.81,12.88-5.63,23.66-12.39,31.65-20.59a50.5,50.5,0,0,0,9.58-13.53,37.28,37.28,0,0,0,3.63-15.64v-.22A37.07,37.07,0,0,0,282.76,52.1Z"/><path class="cls-2" d="M143.17,9.71C69.44,9.67,9.7,35.67,9.72,67.78S69.51,126,143.25,126s133.47-26,133.44-58.08S216.9,9.77,143.17,9.71"/><path class="cls-3" d="M143.17,18.3c-69.08,0-125.09,22.12-125.08,49.48s56.05,49.61,125.15,49.65S268.33,95.32,268.31,67.94s-56-49.6-125.14-49.64"/><path class="cls-4" d="M257.29,79.83a4.57,4.57,0,0,0-1.74-1.75,4.74,4.74,0,0,0-2.38-.63,4.67,4.67,0,0,0-2.37.63,4.78,4.78,0,0,0-2.39,4.12A4.78,4.78,0,0,0,253.17,87a4.74,4.74,0,0,0,2.38-.64,4.8,4.8,0,0,0,2.39-4.13,4.52,4.52,0,0,0-.65-2.37m-1.4,5.09a3.73,3.73,0,0,1-2.72,1.13,3.84,3.84,0,0,1,0-7.68,3.83,3.83,0,0,1,2.72,6.55"/><path class="cls-4" d="M254.59,83.27a2.65,2.65,0,0,0-.41-.51,1.28,1.28,0,0,0-.43-.24,1.9,1.9,0,0,0,1-.54,1.29,1.29,0,0,0,.34-.88,1.34,1.34,0,0,0-.44-1,2.06,2.06,0,0,0-1.41-.4H251v5.09h1.26v-2h.16a.68.68,0,0,1,.51.28,12.47,12.47,0,0,1,1,1.72h1.49c-.54-.95-.82-1.44-.82-1.47m-1.76-1.46h-.56V80.55h.6a1,1,0,0,1,.73.18.52.52,0,0,1,.22.45.54.54,0,0,1-.22.46,1.25,1.25,0,0,1-.77.17"/><path class="cls-4" d="M76.6,75.69,67.32,49.87c-1.32-3.64-3.15-5.63-6.67-5.63H56.29c-3.52,0-5.34,2-6.66,5.63L40.35,75.69c-1,2.91-2.18,6.12-2.18,8.12,0,3.28,3.2,5.65,6.35,5.65,2.19,0,4.92-1,5.65-3.47l1-3.2H65.81l1,3.2c.73,2.49,3.46,3.47,5.64,3.47,3.16,0,6.37-2.37,6.37-5.65,0-2-1.16-5.21-2.18-8.12M53.69,74.06l4.72-16h.13l4.72,16Z"/><path class="cls-4" d="M81.88,83.27c0,4.24,2.6,6.19,6.24,6.19s6.25-1.95,6.25-6.19V74.6c0-4.12,1.93-5.39,5.27-6.24l3.38-.84c2.13-.56,3.4-2.49,3.4-5.59,0-2.73-1.27-5.75-5.09-5.75-3.58,0-6,3.08-8.12,8.85h-.12V62.6c0-4.72-2.49-6.42-5.58-6.42s-5.63,1.93-5.63,6.18Z"/><path class="cls-4" d="M110.81,83.27c0,4.24,2.59,6.19,6.24,6.19s6.24-1.95,6.24-6.19V62.36c0-4.25-2.6-6.18-6.24-6.18s-6.24,1.93-6.24,6.18Z"/><path class="cls-4" d="M143.74,79.94l13-13c1.71-1.7,2.13-2.66,2.13-4.66,0-3.09-1.39-5.35-4.54-5.35H134.52c-3.81,0-5.34,1.16-5.34,4.38,0,3.45,1.83,4.37,4.67,4.37h9.89L130.59,78.6c-2.14,2.12-2.74,3.51-2.74,5.51s1.28,4.55,4.25,4.55h22.49c2.85,0,4.67-.91,4.67-4.36s-1.82-4.36-4.67-4.36Z"/><path class="cls-4" d="M166.73,57h-2.3c-2.49,0-3.88,1.16-3.88,3.65s1.39,3.64,3.88,3.64h2.3V78.85c0,7.09,3.88,10.61,10.92,10.61s8.72-2.19,8.72-4.74c0-2.91-1.39-4.37-6.11-4.37a1.31,1.31,0,0,1-1.4-1.45V64.24h3.64c2.48,0,3.87-1.16,3.87-3.64S185,57,182.5,57h-3.64V53c0-4.29-2.19-6.24-6.07-6.24s-6.06,2-6.06,6.24Z"/><path class="cls-4" d="M189.24,83.26c0,4.25,2.61,6.2,6.25,6.2s6.23-1.95,6.23-6.2V62.36c0-4.25-2.59-6.18-6.23-6.18s-6.25,1.93-6.25,6.18Z"/><path class="cls-4" d="M243.45,75.69l-9.27-25.82c-1.34-3.64-3.16-5.63-6.68-5.63h-4.36c-3.51,0-5.33,2-6.67,5.63l-9.28,25.82c-1,2.91-2.18,6.12-2.18,8.12,0,3.28,3.21,5.65,6.37,5.65,2.18,0,4.91-1,5.64-3.47l1-3.2h14.69l1,3.2c.72,2.49,3.44,3.47,5.64,3.47,3.14,0,6.36-2.37,6.36-5.65,0-2-1.16-5.21-2.18-8.12m-22.91-1.63,4.73-16h.11l4.73,16Z"/><path class="cls-1" d="M192.26,48.43c0-1.55,4.08-10.49,7.36-10.68,4-.25,6.22,2.73,6.22,6,0,2.77-6.72,9.3-9,9.3a4.59,4.59,0,0,1-4.62-4.63"/><path class="cls-1" d="M23.85,164.34a6.88,6.88,0,0,1-2.27-.7q-.58-.39-.39-.78a2,2,0,0,1,1.06-.75,11.46,11.46,0,0,1,2.12-.64l4.82-23.23a1.31,1.31,0,0,1,.49-.5,1.76,1.76,0,0,1,.63-.24,1,1,0,0,1,.54,0,.38.38,0,0,1,.28.31l-3.51,23.62,14.05-2.77c.15-.58.35-1.42.61-2.54s.54-2.36.84-3.75.62-2.84,1-4.37.65-3,1-4.43.57-2.71.8-3.88.41-2.09.52-2.75c.58-.29,1-.21,1.22.24a4.45,4.45,0,0,1,.3,2.08,25.77,25.77,0,0,1-.37,3.38c-.21,1.32-.47,2.67-.76,4.08s-.59,2.79-.91,4.18-.58,2.62-.78,3.7-.33,2-.39,2.65,0,1,.26,1h4a.41.41,0,0,1,.42.28,1.44,1.44,0,0,1,.08.63,1.61,1.61,0,0,1-.17.65.78.78,0,0,1-.37.39,5.55,5.55,0,0,0-1,0q-.72,0-1.47.15a9.72,9.72,0,0,0-1.43.31,2.1,2.1,0,0,0-.89.41c-.23,1-.51,2.25-.82,3.88s-.65,3.36-1,5.18-.64,3.6-.91,5.35-.48,3.19-.63,4.32a1.82,1.82,0,0,1-1.54.65,1.2,1.2,0,0,1-1.1-.83l3.12-17.86a11.8,11.8,0,0,0-3.1.07c-1.29.15-2.63.36-4,.6s-2.76.52-4.08.81-2.38.5-3.19.65L23.33,179.6A.59.59,0,0,1,23,180a2.48,2.48,0,0,1-.65.21,3.65,3.65,0,0,1-.72.07,1.13,1.13,0,0,1-.56-.13Z"/><path class="cls-1" d="M56.89,179.77a6.4,6.4,0,0,1-4.84-1.41,8,8,0,0,1-2.38-4.16,16.48,16.48,0,0,1-.28-5.72,26.79,26.79,0,0,1,1.41-6.12A22.6,22.6,0,0,1,53.5,157a10.14,10.14,0,0,1,3.65-3.36,9.07,9.07,0,0,1,2.92-.89,8,8,0,0,1,3.19.28A4.74,4.74,0,0,1,65.47,155a5.13,5.13,0,0,1,.69,2.62,8,8,0,0,1-.58,2.93A11.21,11.21,0,0,1,64,163.27a9.41,9.41,0,0,1-2.35,2.15,6.75,6.75,0,0,1-2.83,1.06,5.91,5.91,0,0,1-3.06-.45,8.35,8.35,0,0,1-3-2.43,20.42,20.42,0,0,0-.6,2.25,23.73,23.73,0,0,0-.44,3,18,18,0,0,0,0,3.2,9.5,9.5,0,0,0,.71,2.89A4.81,4.81,0,0,0,54.09,177a4.43,4.43,0,0,0,2.88.7c.32-.09.86-.27,1.63-.57s1.58-.6,2.45-1,1.68-.68,2.45-1l1.58-.72c.26.37.19.82-.22,1.34a7.32,7.32,0,0,1-1.79,1.56,16.43,16.43,0,0,1-2.85,1.45A16.22,16.22,0,0,1,56.89,179.77Zm0-15.78a4.32,4.32,0,0,0,2.73.22,4.72,4.72,0,0,0,2.08-1.2A6,6,0,0,0,63,161a7.48,7.48,0,0,0,.59-2.32,5.16,5.16,0,0,0-.24-2.08,2,2,0,0,0-1.15-1.28,3.14,3.14,0,0,0-1.71-.09,6.71,6.71,0,0,0-2.34.87,7.86,7.86,0,0,0-2.21,2,6.2,6.2,0,0,0-1.28,3.21,1.4,1.4,0,0,0,.17,1,3.37,3.37,0,0,0,.65.85,8.16,8.16,0,0,0,.76.63A1.77,1.77,0,0,0,56.84,164Z"/><path class="cls-1" d="M73.36,180a7.29,7.29,0,0,1-3.75-.69,5.32,5.32,0,0,1-2.21-2.17,7.29,7.29,0,0,1-.82-3.28,16.37,16.37,0,0,1,.41-4c.29-1.24.67-2.55,1.13-3.92s1-2.72,1.56-4a31.83,31.83,0,0,1,1.91-3.73,21.18,21.18,0,0,1,2.12-3,8.11,8.11,0,0,1,2.23-1.86,3,3,0,0,1,2.23-.3,5.07,5.07,0,0,1,.87.45,3.84,3.84,0,0,1,1.28,1.48,7.81,7.81,0,0,1,.76,3,13.83,13.83,0,0,1-.74,5,.7.7,0,0,1-.52.57,1.38,1.38,0,0,1-.82-.07,1.74,1.74,0,0,1-.74-.47.89.89,0,0,1-.26-.72,4.56,4.56,0,0,1,.33-1.28c.18-.47.35-1,.5-1.47a9.2,9.2,0,0,0,.28-1.52,2.54,2.54,0,0,0-.28-1.41,1.28,1.28,0,0,0-1.78-.73,6.68,6.68,0,0,0-2.39,2,24.84,24.84,0,0,0-2.49,3.84,34.83,34.83,0,0,0-2.12,4.79,29.45,29.45,0,0,0-1.31,4.87,9.68,9.68,0,0,0,0,4,3.39,3.39,0,0,0,1.82,2.32c.92.45,2.28.35,4.07-.28a14.91,14.91,0,0,0,1.74-.72l2.21-1L81,174.54a16.88,16.88,0,0,1,2.23-.82,6,6,0,0,1,1.7-.26.76.76,0,0,1,.8.58,16.58,16.58,0,0,1-2.36,2.09A21.78,21.78,0,0,1,80.28,178a23,23,0,0,1-3.45,1.42A12.71,12.71,0,0,1,73.36,180Z"/><path class="cls-1" d="M86.45,178.12c.67-1.73,1.32-3.7,2-5.89s1.25-4.52,1.82-7,1.13-5,1.65-7.53,1-5.11,1.37-7.64.71-5,1-7.35.44-4.57.53-6.59a.83.83,0,0,1,.58-.5,2.65,2.65,0,0,1,.93-.13,2.2,2.2,0,0,1,.89.21.9.9,0,0,1,.5.54c-.12.64-.25,1.63-.41,3l-.54,4.51c-.21,1.66-.43,3.4-.68,5.22s-.51,3.54-.8,5.16-.59,3-.91,4.27a8.41,8.41,0,0,1-1,2.58,30.46,30.46,0,0,1,3.88-5,11,11,0,0,1,3.12-2.29,3.3,3.3,0,0,1,2.35-.26,3.43,3.43,0,0,1,1.6,1.08,4.77,4.77,0,0,1,.91,1.78,5.72,5.72,0,0,1,.24,1.84c-.06.92-.17,2-.35,3.36s-.37,2.69-.58,4.14-.44,2.91-.68,4.38-.45,2.86-.67,4.14-.39,2.42-.54,3.4-.23,1.71-.26,2.17a1.17,1.17,0,0,1-.61.35,2.74,2.74,0,0,1-.84.11,1.53,1.53,0,0,1-.72-.22.67.67,0,0,1-.26-.67c.06-.58.18-1.38.37-2.41s.4-2.18.63-3.47.47-2.64.72-4.07.47-2.84.69-4.23.38-2.69.5-3.92.17-2.28.17-3.15a2.24,2.24,0,0,0-.58-1.62,1.2,1.2,0,0,0-1.37-.15,7.21,7.21,0,0,0-2,1.25,20.57,20.57,0,0,0-2,1.93,18.37,18.37,0,0,0-1.56,1.93,3,3,0,0,0-.63,1.26,20.6,20.6,0,0,0-1.58,2.95c-.51,1.13-1,2.3-1.43,3.53s-.86,2.45-1.24,3.66-.71,2.31-1,3.28-.54,1.75-.74,2.36-.36.94-.48,1a1.19,1.19,0,0,1-.8.13,1.23,1.23,0,0,1-.63-.35,1.79,1.79,0,0,1-.39-.59A1,1,0,0,1,86.45,178.12Z"/><path class="cls-1" d="M108.57,178.51a5.54,5.54,0,0,1-1.16-3.33,17.06,17.06,0,0,1,.4-4.12,31,31,0,0,1,1.23-4.32q.78-2.15,1.35-3.9a16.1,16.1,0,0,0,.69-3c.09-.79-.13-1.28-.65-1.45A18.39,18.39,0,0,1,112.6,155a8.74,8.74,0,0,1,3.27-2.77,4.55,4.55,0,0,1,3-.31,5.14,5.14,0,0,1,2.51,1.71,9.53,9.53,0,0,1,1.71,3.28,16,16,0,0,1,.65,4.4,18.34,18.34,0,0,1-.65,5.05,26,26,0,0,1-1.08,3.1,32.68,32.68,0,0,1-1.78,3.62,24,24,0,0,1-2.36,3.43,11.66,11.66,0,0,1-2.82,2.51,5.94,5.94,0,0,1-3.14.91A5.42,5.42,0,0,1,108.57,178.51Zm1.6-1.64q.48,1.42,1.65,1.32a4.93,4.93,0,0,0,2.6-1.32,16.62,16.62,0,0,0,2.86-3.35,24,24,0,0,0,2.45-4.74,23,23,0,0,0,1.37-5.55,15.71,15.71,0,0,0-.4-5.79,7.13,7.13,0,0,0-1.62-3.31,1.5,1.5,0,0,0-1.84-.24,5.8,5.8,0,0,0-1.93,2.1,24.27,24.27,0,0,0-1.85,3.75c-.58,1.45-1.1,3-1.58,4.66s-.87,3.29-1.17,4.88-.51,3.05-.63,4.4A11.36,11.36,0,0,0,110.17,176.87Z"/><path class="cls-1" d="M145.67,179.77a6.38,6.38,0,0,1-4.83-1.41,7.93,7.93,0,0,1-2.38-4.16,16.46,16.46,0,0,1-.29-5.72,26.81,26.81,0,0,1,1.42-6.12,22.23,22.23,0,0,1,2.7-5.33,10.2,10.2,0,0,1,3.64-3.36,9.13,9.13,0,0,1,2.93-.89,8,8,0,0,1,3.19.28,4.74,4.74,0,0,1,2.21,1.89,5.13,5.13,0,0,1,.69,2.62,8.21,8.21,0,0,1-.58,2.93,11.21,11.21,0,0,1-1.58,2.77,9.41,9.41,0,0,1-2.35,2.15,6.74,6.74,0,0,1-2.84,1.06,5.89,5.89,0,0,1-3-.45,8.27,8.27,0,0,1-3-2.43,20.42,20.42,0,0,0-.6,2.25,22,22,0,0,0-.44,3,18,18,0,0,0,0,3.2,9.22,9.22,0,0,0,.72,2.89,4.74,4.74,0,0,0,1.67,2.05,4.4,4.4,0,0,0,2.88.7c.32-.09.86-.27,1.63-.57s1.58-.6,2.45-1,1.68-.68,2.45-1l1.58-.72c.26.37.19.82-.22,1.34a7.2,7.2,0,0,1-1.8,1.56,16,16,0,0,1-2.84,1.45A16.31,16.31,0,0,1,145.67,179.77Zm0-15.78a4.32,4.32,0,0,0,2.73.22,4.77,4.77,0,0,0,2.08-1.2,6,6,0,0,0,1.37-2,7.19,7.19,0,0,0,.58-2.32,5.17,5.17,0,0,0-.23-2.08,2,2,0,0,0-1.15-1.28,3.14,3.14,0,0,0-1.71-.09,6.71,6.71,0,0,0-2.34.87,7.9,7.9,0,0,0-2.22,2,6.37,6.37,0,0,0-1.28,3.21,1.35,1.35,0,0,0,.18,1,3.37,3.37,0,0,0,.65.85,8.16,8.16,0,0,0,.76.63A1.77,1.77,0,0,0,145.63,164Z"/><path class="cls-1" d="M171.47,179.29c.17-.37.48-1.14.93-2.3s.92-2.51,1.43-4.07,1-3.22,1.49-5a48.3,48.3,0,0,0,1.14-5,18,18,0,0,0,.27-4.1,2.57,2.57,0,0,0-1-2.25,2.25,2.25,0,0,0-2.17,0,8.72,8.72,0,0,0-2.45,1.87,24.59,24.59,0,0,0-2.58,3.25c-.87,1.29-1.71,2.65-2.51,4.1s-1.57,2.9-2.28,4.38-1.34,2.85-1.89,4.14-1,2.42-1.34,3.4a12.36,12.36,0,0,0-.6,2.08,2.84,2.84,0,0,1-1.41.09,1.17,1.17,0,0,1-1-.87q.78-2.56,1.53-6.07t1.35-7.22q.59-3.7.93-7.26t.35-6.24a.62.62,0,0,1,.5-.54,2,2,0,0,1,1-.09,3,3,0,0,1,1,.28c.29.15.41.33.39.56l-2,14.74a11,11,0,0,1,.91-2.12,31,31,0,0,1,1.86-3.12,37.34,37.34,0,0,1,2.56-3.4,24.31,24.31,0,0,1,2.91-3,10,10,0,0,1,2.95-1.81,3.41,3.41,0,0,1,2.73,0,3.7,3.7,0,0,1,1.93,2.4,13.67,13.67,0,0,1,.5,4.16,31.51,31.51,0,0,1-.59,5.2q-.54,2.81-1.28,5.51t-1.58,5.07c-.57,1.58-1.08,2.89-1.54,3.93a1.57,1.57,0,0,1-.79.61,1.26,1.26,0,0,1-.77,0,1.39,1.39,0,0,1-.87-1.31Z"/><path class="cls-1" d="M200.77,180a7.29,7.29,0,0,1-3.75-.69,5.37,5.37,0,0,1-2.21-2.17,7.29,7.29,0,0,1-.82-3.28,16.37,16.37,0,0,1,.41-4c.29-1.24.67-2.55,1.13-3.92s1-2.72,1.56-4a33.44,33.44,0,0,1,1.91-3.73,21.18,21.18,0,0,1,2.12-3,8,8,0,0,1,2.24-1.86,3,3,0,0,1,2.23-.3,6,6,0,0,1,.87.45,3.91,3.91,0,0,1,1.27,1.48,7.81,7.81,0,0,1,.76,3,13.83,13.83,0,0,1-.74,5,.69.69,0,0,1-.52.57,1.38,1.38,0,0,1-.82-.07,1.8,1.8,0,0,1-.74-.47.93.93,0,0,1-.26-.72,4.56,4.56,0,0,1,.33-1.28c.19-.47.35-1,.5-1.47a9.2,9.2,0,0,0,.28-1.52,2.54,2.54,0,0,0-.28-1.41,1.28,1.28,0,0,0-1.78-.73,6.58,6.58,0,0,0-2.38,2,24.12,24.12,0,0,0-2.5,3.84,34.83,34.83,0,0,0-2.12,4.79,29.39,29.39,0,0,0-1.3,4.87,9.53,9.53,0,0,0,0,4,3.39,3.39,0,0,0,1.82,2.32c.92.45,2.28.35,4.08-.28a14.87,14.87,0,0,0,1.73-.72l2.21-1,2.39-1.09a16.38,16.38,0,0,1,2.23-.82,5.9,5.9,0,0,1,1.69-.26.75.75,0,0,1,.8.58,16,16,0,0,1-2.36,2.09,21.78,21.78,0,0,1-3.08,1.88,22.54,22.54,0,0,1-3.45,1.42A12.71,12.71,0,0,1,200.77,180Z"/><path class="cls-1" d="M214.22,178.51a6.36,6.36,0,0,1-.65-3.25,25.81,25.81,0,0,1,.5-4.83,44.44,44.44,0,0,1,1.42-5.55,43.39,43.39,0,0,1,2.15-5.42,24.76,24.76,0,0,1,2.67-4.42,7.66,7.66,0,0,1,3-2.54,7.53,7.53,0,0,1,1.58-.3,2.84,2.84,0,0,1,1.84.5,4.62,4.62,0,0,1,1.58,2.08,12.06,12.06,0,0,1,.76,4.4,31.37,31.37,0,0,1-.11,4.12,53.06,53.06,0,0,1-.75,5.37c-.09.52-.22,1.24-.41,2.17a24.64,24.64,0,0,0-.4,2.73,7.37,7.37,0,0,0,.15,2.36,1.39,1.39,0,0,0,1.17,1.15,3.15,3.15,0,0,0,2-.54c.78-.45,1.54-.93,2.28-1.45s1.4-1,2-1.35,1-.47,1.3-.3.42.34.39.85a2.2,2.2,0,0,1-.91,1.49,15.29,15.29,0,0,1-2.53,1.84,12.11,12.11,0,0,1-2.69,1.2,6.88,6.88,0,0,1-2.48.3,2.82,2.82,0,0,1-1.88-.85,4.28,4.28,0,0,1-1-2.29,11.46,11.46,0,0,1,.26-4,29.94,29.94,0,0,1-3.23,4.23,14.29,14.29,0,0,1-3.12,2.65,5.12,5.12,0,0,1-2.77.84A2.56,2.56,0,0,1,214.22,178.51Zm3.77-1.6a11.73,11.73,0,0,0,3.73-2.91,19.5,19.5,0,0,0,2.71-4.09,24.22,24.22,0,0,0,1.71-4.62,28.45,28.45,0,0,0,.78-4.49,16,16,0,0,0-.09-3.72,4,4,0,0,0-1-2.3,1.52,1.52,0,0,0-1.78-.22,7.19,7.19,0,0,0-2.56,2.49,31.27,31.27,0,0,0-1.84,3.54q-1,2.15-1.8,4.5t-1.39,4.71a24.6,24.6,0,0,0-.67,4.07,5.15,5.15,0,0,0,.37,2.65C216.53,177.12,217.12,177.26,218,176.91Z"/><path class="cls-1" d="M239,179.12q-1-.21-1.08-1a1.82,1.82,0,0,1,.73-1.54c1.31.26,2.67.52,4.08.76s2.75.45,4,.61,2.36.25,3.32.28a4.31,4.31,0,0,0,2-.26.47.47,0,0,0,.28-.54,1.86,1.86,0,0,0-.69-.92,16.38,16.38,0,0,0-1.82-1.29c-.8-.51-1.83-1.09-3.1-1.76a19.91,19.91,0,0,1-4.62-3.27,8.93,8.93,0,0,1-2.45-3.84,6.69,6.69,0,0,1,.18-4.25,11.64,11.64,0,0,1,3.25-4.51,12.89,12.89,0,0,1,3.86-2.4,14.47,14.47,0,0,1,5.11-1,4.71,4.71,0,0,1,2.6.59,4.65,4.65,0,0,1,1.72,1.69,7.12,7.12,0,0,1,.86,2.53,12,12,0,0,1,.07,3.12,1.1,1.1,0,0,1-.35.78,1.39,1.39,0,0,1-.65.33,1,1,0,0,1-.65-.09.52.52,0,0,1-.3-.5,12.53,12.53,0,0,0-.14-3.62,4.72,4.72,0,0,0-.82-2,2,2,0,0,0-1.15-.78,5.14,5.14,0,0,0-1.06-.13A12.44,12.44,0,0,0,248,157a10.7,10.7,0,0,0-3.56,2.34,9.71,9.71,0,0,0-2.49,3.58,4.37,4.37,0,0,0,0,3.07,7.28,7.28,0,0,0,2.22,2.8,27.29,27.29,0,0,0,4,2.69c1.06.61,2.12,1.22,3.16,1.84a20.57,20.57,0,0,1,2.69,1.89,5.69,5.69,0,0,1,1.58,2,2.14,2.14,0,0,1-.15,2.06,11,11,0,0,1-3.84,1,30.87,30.87,0,0,1-4.62.08,42.7,42.7,0,0,1-4.51-.47A32.53,32.53,0,0,1,239,179.12Z"/><path class="cls-1" d="M259.87,178.51a6.34,6.34,0,0,1-.66-3.25,26.68,26.68,0,0,1,.5-4.83,46.36,46.36,0,0,1,1.43-5.55,45,45,0,0,1,2.15-5.42A25.35,25.35,0,0,1,266,155a7.9,7.9,0,0,1,3-2.54,7.53,7.53,0,0,1,1.58-.3,2.85,2.85,0,0,1,1.84.5,4.63,4.63,0,0,1,1.59,2.08,12.31,12.31,0,0,1,.75,4.4,31.37,31.37,0,0,1-.11,4.12,53.35,53.35,0,0,1-.76,5.37c-.08.52-.22,1.24-.41,2.17a24.57,24.57,0,0,0-.39,2.73,7.37,7.37,0,0,0,.15,2.36,1.39,1.39,0,0,0,1.18,1.15,3.12,3.12,0,0,0,2-.54c.78-.45,1.54-.93,2.27-1.45s1.41-1,2-1.35,1-.47,1.3-.3.42.34.39.85a2.2,2.2,0,0,1-.91,1.49,15.29,15.29,0,0,1-2.53,1.84,11.91,11.91,0,0,1-2.69,1.2,6.85,6.85,0,0,1-2.47.3,2.82,2.82,0,0,1-1.89-.85,4.28,4.28,0,0,1-1-2.29,11.22,11.22,0,0,1,.26-4,30.71,30.71,0,0,1-3.23,4.23,14.29,14.29,0,0,1-3.12,2.65,5.15,5.15,0,0,1-2.77.84A2.56,2.56,0,0,1,259.87,178.51Zm3.77-1.6a11.73,11.73,0,0,0,3.73-2.91,19.46,19.46,0,0,0,2.7-4.09,23.6,23.6,0,0,0,1.72-4.62,28.45,28.45,0,0,0,.78-4.49,16,16,0,0,0-.09-3.72,4,4,0,0,0-1-2.3,1.52,1.52,0,0,0-1.78-.22,7.19,7.19,0,0,0-2.56,2.49,31.27,31.27,0,0,0-1.84,3.54q-1,2.15-1.8,4.5t-1.39,4.71a24.6,24.6,0,0,0-.67,4.07,5.26,5.26,0,0,0,.37,2.65C262.18,177.12,262.77,177.26,263.64,176.91Z"/><path class="cls-1" d="M86,208.57V207.1h0a2.64,2.64,0,0,1-1.38,1.31,5.39,5.39,0,0,1-2.08.39,4.84,4.84,0,0,1-2.19-.46,4.54,4.54,0,0,1-1.56-1.24,5.4,5.4,0,0,1-.93-1.8,7.48,7.48,0,0,1-.32-2.19,7.81,7.81,0,0,1,.31-2.18,5.15,5.15,0,0,1,.92-1.79,4.49,4.49,0,0,1,1.56-1.22,4.92,4.92,0,0,1,2.17-.45,5.88,5.88,0,0,1,.9.08,4.64,4.64,0,0,1,1,.29,4,4,0,0,1,.91.52,2.8,2.8,0,0,1,.72.81h0v-5.58h1.78v15Zm-6.42-3.85a4.26,4.26,0,0,0,.61,1.29,2.87,2.87,0,0,0,1,.9,3.13,3.13,0,0,0,1.5.34,3,3,0,0,0,1.53-.36,2.88,2.88,0,0,0,1-.93,3.8,3.8,0,0,0,.58-1.31,6.26,6.26,0,0,0,.18-1.49,6.15,6.15,0,0,0-.19-1.55,4,4,0,0,0-.6-1.31,2.94,2.94,0,0,0-1.06-.91A3.31,3.31,0,0,0,82.6,199a3,3,0,0,0-1.53.36,2.85,2.85,0,0,0-1,.94,4.17,4.17,0,0,0-.55,1.35,7.22,7.22,0,0,0-.17,1.55A5.68,5.68,0,0,0,79.54,204.72Z"/><path class="cls-1" d="M102.37,207.88a5,5,0,0,1-3.06.92,5.59,5.59,0,0,1-2.26-.42,4.52,4.52,0,0,1-1.61-1.17,5,5,0,0,1-1-1.81,8.64,8.64,0,0,1-.37-2.29,6.53,6.53,0,0,1,.38-2.26,5.35,5.35,0,0,1,1.06-1.79,4.8,4.8,0,0,1,1.61-1.17,5,5,0,0,1,2-.42,4.4,4.4,0,0,1,2.4.6,4.76,4.76,0,0,1,1.54,1.52,6,6,0,0,1,.79,2,8.41,8.41,0,0,1,.18,2.08H96a4.34,4.34,0,0,0,.17,1.36,3,3,0,0,0,.61,1.13,3,3,0,0,0,1.07.79,3.76,3.76,0,0,0,1.53.29,3.12,3.12,0,0,0,1.86-.52,2.55,2.55,0,0,0,1-1.6h1.76A4.28,4.28,0,0,1,102.37,207.88Zm-.43-7a3.08,3.08,0,0,0-1.62-1.63A3.05,3.05,0,0,0,99.1,199a3,3,0,0,0-2.21.9,3.36,3.36,0,0,0-.63,1,3.9,3.9,0,0,0-.27,1.19h6.23A3.76,3.76,0,0,0,101.94,200.91Z"/><path class="cls-1" d="M111.52,206.15a2,2,0,0,0,.66.65,3,3,0,0,0,.93.35,5.22,5.22,0,0,0,1.06.1,6.85,6.85,0,0,0,.88-.06,3.22,3.22,0,0,0,.85-.23,1.57,1.57,0,0,0,.64-.5,1.28,1.28,0,0,0,.25-.83,1.19,1.19,0,0,0-.52-1A4.6,4.6,0,0,0,115,204c-.52-.15-1.09-.28-1.71-.4a9,9,0,0,1-1.71-.51,3.51,3.51,0,0,1-1.31-.91,2.36,2.36,0,0,1-.52-1.64,2.63,2.63,0,0,1,.36-1.4,3.11,3.11,0,0,1,1-1,4.45,4.45,0,0,1,1.3-.54,5.92,5.92,0,0,1,1.44-.18,8.25,8.25,0,0,1,1.7.16,3.85,3.85,0,0,1,1.37.54,2.86,2.86,0,0,1,1,1.05,4.25,4.25,0,0,1,.42,1.65h-1.79a1.86,1.86,0,0,0-.27-.87,1.76,1.76,0,0,0-.59-.56,2.59,2.59,0,0,0-.79-.3,3.57,3.57,0,0,0-.87-.1,4.4,4.4,0,0,0-.8.07,2.44,2.44,0,0,0-.75.22,1.44,1.44,0,0,0-.55.42,1,1,0,0,0-.21.68,1,1,0,0,0,.33.76,2.43,2.43,0,0,0,.83.51,7.59,7.59,0,0,0,1.13.33l1.26.29a11,11,0,0,1,1.31.36,4,4,0,0,1,1.14.55,2.64,2.64,0,0,1,.79.87,2.5,2.5,0,0,1,.31,1.3,3,3,0,0,1-.41,1.64,3.26,3.26,0,0,1-1.07,1.05,4.51,4.51,0,0,1-1.49.56,9.21,9.21,0,0,1-1.65.15,7.43,7.43,0,0,1-1.72-.19,4,4,0,0,1-1.45-.62,3.16,3.16,0,0,1-1-1.13,4,4,0,0,1-.42-1.71h1.79A2,2,0,0,0,111.52,206.15Z"/><path class="cls-1" d="M132.76,208.57V207.1h0a2.64,2.64,0,0,1-1.38,1.31,5.43,5.43,0,0,1-2.08.39,4.84,4.84,0,0,1-2.19-.46,4.45,4.45,0,0,1-1.56-1.24,5.4,5.4,0,0,1-.93-1.8,7.74,7.74,0,0,1,0-4.37,5.15,5.15,0,0,1,.92-1.79,4.45,4.45,0,0,1,1.55-1.22,5,5,0,0,1,2.18-.45,5.88,5.88,0,0,1,.9.08,4.64,4.64,0,0,1,1,.29,4,4,0,0,1,.91.52,2.8,2.8,0,0,1,.72.81h0v-5.58h1.79v15Zm-6.41-3.85A4,4,0,0,0,127,206a2.87,2.87,0,0,0,1,.9,3.13,3.13,0,0,0,1.5.34,3,3,0,0,0,1.53-.36,2.88,2.88,0,0,0,1-.93,3.8,3.8,0,0,0,.58-1.31,6.26,6.26,0,0,0,.18-1.49,6.64,6.64,0,0,0-.19-1.55,4,4,0,0,0-.6-1.31,3,3,0,0,0-1.06-.91,3.31,3.31,0,0,0-1.57-.35,3.05,3.05,0,0,0-1.54.36,2.82,2.82,0,0,0-1,.94,4,4,0,0,0-.55,1.35,7.22,7.22,0,0,0-.17,1.55A5.68,5.68,0,0,0,126.35,204.72Z"/><path class="cls-1" d="M149.18,207.88a5,5,0,0,1-3.07.92,5.54,5.54,0,0,1-2.25-.42,4.52,4.52,0,0,1-1.61-1.17,5,5,0,0,1-1-1.81,8.64,8.64,0,0,1-.37-2.29,6.31,6.31,0,0,1,.38-2.26,5.35,5.35,0,0,1,1.06-1.79,4.8,4.8,0,0,1,1.61-1.17,5,5,0,0,1,2-.42,4.4,4.4,0,0,1,2.4.6,4.63,4.63,0,0,1,1.53,1.52,5.77,5.77,0,0,1,.8,2,8.41,8.41,0,0,1,.18,2.08H142.8A4.34,4.34,0,0,0,143,205a3.18,3.18,0,0,0,.61,1.13,3.08,3.08,0,0,0,1.07.79,3.85,3.85,0,0,0,1.54.29,3.07,3.07,0,0,0,1.85-.52,2.56,2.56,0,0,0,1-1.6h1.76A4.33,4.33,0,0,1,149.18,207.88Zm-.43-7a3,3,0,0,0-.65-1,3.2,3.2,0,0,0-3.44-.66,3,3,0,0,0-1,.66,3.16,3.16,0,0,0-.63,1,3.9,3.9,0,0,0-.27,1.19H149A3.76,3.76,0,0,0,148.75,200.91Z"/><path class="cls-1" d="M171.34,208.57V197.91h-3.86v-1.43a10,10,0,0,0,1.47-.11,4,4,0,0,0,1.29-.43,3,3,0,0,0,1-.86,3.29,3.29,0,0,0,.54-1.39h1.37v14.88Z"/><path class="cls-1" d="M183.25,195.86a3.45,3.45,0,0,1,1-1.18,4.27,4.27,0,0,1,1.4-.74,5.26,5.26,0,0,1,1.64-.25,5.78,5.78,0,0,1,2.08.33,3.74,3.74,0,0,1,1.4.86,3.3,3.3,0,0,1,.79,1.21,4.26,4.26,0,0,1,.25,1.4,3.27,3.27,0,0,1-.56,1.84,3.54,3.54,0,0,1-1.5,1.25,3.56,3.56,0,0,1,2,1.37,4.1,4.1,0,0,1,.65,2.34,4.52,4.52,0,0,1-.39,1.93,4.27,4.27,0,0,1-1.05,1.42,4.52,4.52,0,0,1-1.57.87,6.34,6.34,0,0,1-1.93.29,7.09,7.09,0,0,1-2-.27,4.42,4.42,0,0,1-1.61-.84,4,4,0,0,1-1.07-1.42,4.67,4.67,0,0,1-.38-2A3.94,3.94,0,0,1,183,202a3.71,3.71,0,0,1,1.93-1.41,3.2,3.2,0,0,1-1.51-1.23,3.29,3.29,0,0,1-.57-1.86A3.53,3.53,0,0,1,183.25,195.86Zm1.89,10.62a3.4,3.4,0,0,0,2.28.77,3.24,3.24,0,0,0,1.23-.22,3.13,3.13,0,0,0,1-.61,2.75,2.75,0,0,0,.63-.91,3.11,3.11,0,0,0,.22-1.16,2.62,2.62,0,0,0-.24-1.12,2.94,2.94,0,0,0-.67-.89,3.3,3.3,0,0,0-1-.6,3.15,3.15,0,0,0-1.19-.22,3.87,3.87,0,0,0-1.23.2,2.77,2.77,0,0,0-1,.58,2.62,2.62,0,0,0-.68.9,2.78,2.78,0,0,0-.24,1.17A2.64,2.64,0,0,0,185.14,206.48Zm-.15-7.87a2.14,2.14,0,0,0,.57.75,2.44,2.44,0,0,0,.83.44,3.51,3.51,0,0,0,1,.14,2.52,2.52,0,0,0,1.77-.62,2.28,2.28,0,0,0,.69-1.77,2.12,2.12,0,0,0-.7-1.71,2.77,2.77,0,0,0-1.8-.57,3.42,3.42,0,0,0-1,.14,2.39,2.39,0,0,0-.82.44,2.15,2.15,0,0,0-.77,1.7A2.47,2.47,0,0,0,185,198.61Z"/><path class="cls-1" d="M201.09,206.66a3,3,0,0,0,1.85.59,2.65,2.65,0,0,0,2.45-1.42,9.33,9.33,0,0,0,.9-4.33l0,0a3.88,3.88,0,0,1-3.44,2,5.31,5.31,0,0,1-2-.36,4.35,4.35,0,0,1-1.48-1,4.24,4.24,0,0,1-.9-1.58,6.42,6.42,0,0,1-.3-2,5.38,5.38,0,0,1,.35-2,4.53,4.53,0,0,1,1-1.54,4.48,4.48,0,0,1,1.56-1,5.27,5.27,0,0,1,2-.36,5.78,5.78,0,0,1,2,.33,3.72,3.72,0,0,1,1.62,1.12,5.73,5.73,0,0,1,1.1,2.17,12.62,12.62,0,0,1,.41,3.5,11.73,11.73,0,0,1-1.23,5.93,4.24,4.24,0,0,1-3.93,2.06,5,5,0,0,1-3.11-.94,3.82,3.82,0,0,1-1.41-2.88h1.79A2.26,2.26,0,0,0,201.09,206.66Zm4.69-9.3a3.54,3.54,0,0,0-.59-1.08,2.87,2.87,0,0,0-.95-.74,3.07,3.07,0,0,0-1.33-.27,2.81,2.81,0,0,0-1.35.29,2.55,2.55,0,0,0-.9.79,3.47,3.47,0,0,0-.51,1.12,5.68,5.68,0,0,0-.15,1.32,3.17,3.17,0,0,0,.22,1.18,3.37,3.37,0,0,0,.6,1,3,3,0,0,0,.93.71,2.73,2.73,0,0,0,1.19.26,3,3,0,0,0,1.25-.26,2.89,2.89,0,0,0,1-.72,3.1,3.1,0,0,0,.61-1,3.77,3.77,0,0,0,.21-1.25A4.28,4.28,0,0,0,205.78,197.36Z"/><path class="cls-1" d="M224.07,203.51v1.58h-2v3.48h-1.68v-3.48h-6.53v-1.72l6.78-9.68h1.43v9.82Zm-3.69-7.28h0l-5,7.28h5Z"/></g></g></svg>